G04 #@! TF.GenerationSoftware,KiCad,Pcbnew,6.0.4-6f826c9f35~116~ubuntu20.04.1*
G04 #@! TF.CreationDate,2022-03-24T08:40:17-04:00*
G04 #@! TF.ProjectId,rpikobhat,7270696b-6f62-4686-9174-2e6b69636164,rev?*
G04 #@! TF.SameCoordinates,Original*
G04 #@! TF.FileFunction,Soldermask,Top*
G04 #@! TF.FilePolarity,Negative*
%FSLAX46Y46*%
G04 Gerber Fmt 4.6, Leading zero omitted, Abs format (unit mm)*
G04 Created by KiCad (PCBNEW 6.0.4-6f826c9f35~116~ubuntu20.04.1) date 2022-03-24 08:40:17*
%MOMM*%
%LPD*%
G01*
G04 APERTURE LIST*
G04 Aperture macros list*
%AMRoundRect*
0 Rectangle with rounded corners*
0 $1 Rounding radius*
0 $2 $3 $4 $5 $6 $7 $8 $9 X,Y pos of 4 corners*
0 Add a 4 corners polygon primitive as box body*
4,1,4,$2,$3,$4,$5,$6,$7,$8,$9,$2,$3,0*
0 Add four circle primitives for the rounded corners*
1,1,$1+$1,$2,$3*
1,1,$1+$1,$4,$5*
1,1,$1+$1,$6,$7*
1,1,$1+$1,$8,$9*
0 Add four rect primitives between the rounded corners*
20,1,$1+$1,$2,$3,$4,$5,0*
20,1,$1+$1,$4,$5,$6,$7,0*
20,1,$1+$1,$6,$7,$8,$9,0*
20,1,$1+$1,$8,$9,$2,$3,0*%
G04 Aperture macros list end*
%ADD10C,3.200000*%
%ADD11RoundRect,0.100000X-0.422500X-0.500000X0.422500X-0.500000X0.422500X0.500000X-0.422500X0.500000X0*%
%ADD12RoundRect,0.100000X-0.500000X0.422500X-0.500000X-0.422500X0.500000X-0.422500X0.500000X0.422500X0*%
%ADD13RoundRect,0.100000X-0.530000X-0.325000X0.530000X-0.325000X0.530000X0.325000X-0.530000X0.325000X0*%
%ADD14RoundRect,0.100000X0.450000X0.400000X-0.450000X0.400000X-0.450000X-0.400000X0.450000X-0.400000X0*%
%ADD15RoundRect,0.100000X0.775000X0.300000X-0.775000X0.300000X-0.775000X-0.300000X0.775000X-0.300000X0*%
%ADD16RoundRect,0.100000X0.850000X0.850000X-0.850000X0.850000X-0.850000X-0.850000X0.850000X-0.850000X0*%
%ADD17O,1.900000X1.900000*%
%ADD18RoundRect,0.100000X0.850000X-0.850000X0.850000X0.850000X-0.850000X0.850000X-0.850000X-0.850000X0*%
%ADD19RoundRect,0.350000X-0.400000X-0.625000X0.400000X-0.625000X0.400000X0.625000X-0.400000X0.625000X0*%
%ADD20RoundRect,0.100000X0.450000X0.600000X-0.450000X0.600000X-0.450000X-0.600000X0.450000X-0.600000X0*%
%ADD21C,2.600000*%
%ADD22O,2.600000X2.600000*%
%ADD23C,2.200000*%
%ADD24RoundRect,0.100000X-2.200000X1.650000X-2.200000X-1.650000X2.200000X-1.650000X2.200000X1.650000X0*%
%ADD25RoundRect,0.100000X-3.100000X1.950000X-3.100000X-1.950000X3.100000X-1.950000X3.100000X1.950000X0*%
%ADD26RoundRect,0.100000X-0.550000X2.300000X-0.550000X-2.300000X0.550000X-2.300000X0.550000X2.300000X0*%
%ADD27RoundRect,0.100000X-5.400000X4.700000X-5.400000X-4.700000X5.400000X-4.700000X5.400000X4.700000X0*%
%ADD28RoundRect,0.100000X-1.150000X1.750000X-1.150000X-1.750000X1.150000X-1.750000X1.150000X1.750000X0*%
%ADD29RoundRect,0.350000X0.400000X0.625000X-0.400000X0.625000X-0.400000X-0.625000X0.400000X-0.625000X0*%
%ADD30RoundRect,0.350000X0.625000X-0.400000X0.625000X0.400000X-0.625000X0.400000X-0.625000X-0.400000X0*%
%ADD31RoundRect,0.350000X-0.412500X-0.650000X0.412500X-0.650000X0.412500X0.650000X-0.412500X0.650000X0*%
%ADD32RoundRect,0.100000X-0.800000X-0.800000X0.800000X-0.800000X0.800000X0.800000X-0.800000X0.800000X0*%
%ADD33C,1.800000*%
%ADD34RoundRect,0.100000X0.800000X0.800000X-0.800000X0.800000X-0.800000X-0.800000X0.800000X-0.800000X0*%
%ADD35O,1.800000X1.800000*%
%ADD36RoundRect,0.100000X1.200000X-1.200000X1.200000X1.200000X-1.200000X1.200000X-1.200000X-1.200000X0*%
%ADD37RoundRect,0.100000X-1.200000X-1.200000X1.200000X-1.200000X1.200000X1.200000X-1.200000X1.200000X0*%
%ADD38RoundRect,0.100000X1.750000X1.150000X-1.750000X1.150000X-1.750000X-1.150000X1.750000X-1.150000X0*%
%ADD39RoundRect,0.100000X-0.850000X0.850000X-0.850000X-0.850000X0.850000X-0.850000X0.850000X0.850000X0*%
G04 APERTURE END LIST*
D10*
X82040000Y-64310000D03*
X140040000Y-64330000D03*
X82040000Y-113320000D03*
X140030000Y-113310000D03*
D11*
X91637500Y-68400000D03*
X93562500Y-68400000D03*
X91737500Y-76500000D03*
X93662500Y-76500000D03*
X119137500Y-74000000D03*
X121062500Y-74000000D03*
D12*
X86233000Y-75745500D03*
X86233000Y-77670500D03*
X88519000Y-75745500D03*
X88519000Y-77670500D03*
D11*
X113437500Y-71400000D03*
X115362500Y-71400000D03*
X113437500Y-69700000D03*
X115362500Y-69700000D03*
D13*
X86276000Y-72075000D03*
X86276000Y-73025000D03*
X86276000Y-73975000D03*
X88476000Y-73975000D03*
X88476000Y-73025000D03*
X88476000Y-72075000D03*
D14*
X88376000Y-70292000D03*
X88376000Y-68392000D03*
X86376000Y-69342000D03*
D15*
X122800000Y-72005000D03*
X122800000Y-70735000D03*
X122800000Y-69465000D03*
X122800000Y-68195000D03*
X117400000Y-68195000D03*
X117400000Y-69465000D03*
X117400000Y-70735000D03*
X117400000Y-72005000D03*
D16*
X93980000Y-73660000D03*
D17*
X91440000Y-73660000D03*
X93980000Y-71120000D03*
X91440000Y-71120000D03*
D18*
X113533000Y-74803000D03*
D17*
X116073000Y-74803000D03*
D11*
X113437500Y-68100000D03*
X115362500Y-68100000D03*
D19*
X114782000Y-81788000D03*
X117882000Y-81788000D03*
D20*
X123697000Y-80391000D03*
X120397000Y-80391000D03*
D21*
X99695000Y-95758000D03*
D22*
X125095000Y-95758000D03*
D23*
X81884000Y-99695000D03*
D24*
X94684000Y-100395000D03*
D25*
X85684000Y-93245000D03*
X85684000Y-106145000D03*
D26*
X136925000Y-92184000D03*
D27*
X134385000Y-101334000D03*
D26*
X131845000Y-92184000D03*
D28*
X140589000Y-72357000D03*
X140589000Y-77757000D03*
D29*
X117882000Y-78359000D03*
X114782000Y-78359000D03*
D30*
X123952000Y-77242000D03*
X123952000Y-74142000D03*
D31*
X99402500Y-102108000D03*
X102527500Y-102108000D03*
D32*
X126121349Y-111125000D03*
D33*
X131121349Y-111125000D03*
D34*
X134991000Y-80000000D03*
D35*
X134991000Y-77460000D03*
X134991000Y-74920000D03*
X134991000Y-72380000D03*
X127371000Y-72380000D03*
X127371000Y-74920000D03*
X127371000Y-77460000D03*
X127371000Y-80000000D03*
D30*
X136906000Y-86132000D03*
X136906000Y-83032000D03*
D36*
X83647000Y-87463000D03*
D21*
X83647000Y-82463000D03*
X92329000Y-87503000D03*
D22*
X117729000Y-87503000D03*
D37*
X102616000Y-110698000D03*
D21*
X107616000Y-110698000D03*
D37*
X114554000Y-110744000D03*
D21*
X119554000Y-110744000D03*
D20*
X125983000Y-83693000D03*
X122683000Y-83693000D03*
X125475000Y-91567000D03*
X122175000Y-91567000D03*
D19*
X122275000Y-88138000D03*
X125375000Y-88138000D03*
D38*
X95537000Y-111633000D03*
X90137000Y-111633000D03*
D19*
X129514000Y-83820000D03*
X132614000Y-83820000D03*
D39*
X86920000Y-65590000D03*
D17*
X86920000Y-63050000D03*
X89460000Y-65590000D03*
X89460000Y-63050000D03*
X92000000Y-65590000D03*
X92000000Y-63050000D03*
X94540000Y-65590000D03*
X94540000Y-63050000D03*
X97080000Y-65590000D03*
X97080000Y-63050000D03*
X99620000Y-65590000D03*
X99620000Y-63050000D03*
X102160000Y-65590000D03*
X102160000Y-63050000D03*
X104700000Y-65590000D03*
X104700000Y-63050000D03*
X107240000Y-65590000D03*
X107240000Y-63050000D03*
X109780000Y-65590000D03*
X109780000Y-63050000D03*
X112320000Y-65590000D03*
X112320000Y-63050000D03*
X114860000Y-65590000D03*
X114860000Y-63050000D03*
X117400000Y-65590000D03*
X117400000Y-63050000D03*
X119940000Y-65590000D03*
X119940000Y-63050000D03*
X122480000Y-65590000D03*
X122480000Y-63050000D03*
X125020000Y-65590000D03*
X125020000Y-63050000D03*
X127560000Y-65590000D03*
X127560000Y-63050000D03*
X130100000Y-65590000D03*
X130100000Y-63050000D03*
X132640000Y-65590000D03*
X132640000Y-63050000D03*
X135180000Y-65590000D03*
X135180000Y-63050000D03*
M02*
