M48
INCH,TZ
T1C0.0197
T2C0.0315
T3C0.0394
T4C0.0472
%
G90
G05
T1
X31650Y-36700
X31950Y-27850
X31950Y-30350
X33850Y-43250
X35050Y-45300
X35850Y-36700
X36100Y-31150
X36446Y-31496
X36650Y-36700
X37800Y-45250
X39650Y-29600
X39750Y-26850
X39800Y-28500
X39850Y-30900
X42600Y-40350
X43050Y-33200
X43650Y-36050
X44450Y-30850
X44950Y-40300
X47554Y-30496
X47950Y-29900
X48700Y-45400
X50100Y-36300
X50300Y-39200
X50300Y-40100
X50300Y-41050
X50650Y-34450
X51050Y-26800
X51050Y-36300
X51800Y-34450
X52600Y-26950
X52900Y-45150
X52950Y-34750
X53000Y-36250
X53350Y-42700
X54200Y-27300
X55500Y-39300
X55500Y-40450
X55500Y-41650
X55850Y-34550
T2
X49654Y-43750
X50146Y-28496
X50146Y-29496
X50146Y-30496
X50146Y-31496
X51623Y-43750
X53146Y-28496
X53146Y-29496
X53146Y-30496
X53146Y-31496
T3
X34220Y-24823
X34220Y-25823
X35220Y-24823
X35220Y-25823
X36000Y-28000
X36000Y-29000
X36220Y-24823
X36220Y-25823
X37000Y-28000
X37000Y-29000
X37220Y-24823
X37220Y-25823
X38220Y-24823
X38220Y-25823
X39220Y-24823
X39220Y-25823
X40220Y-24823
X40220Y-25823
X41220Y-24823
X41220Y-25823
X42220Y-24823
X42220Y-25823
X43220Y-24823
X43220Y-25823
X44220Y-24823
X44220Y-25823
X44698Y-29450
X45220Y-24823
X45220Y-25823
X45698Y-29450
X46220Y-24823
X46220Y-25823
X47220Y-24823
X47220Y-25823
X48220Y-24823
X48220Y-25823
X49220Y-24823
X49220Y-25823
X50220Y-24823
X50220Y-25823
X51220Y-24823
X51220Y-25823
X52220Y-24823
X52220Y-25823
X53220Y-24823
X53220Y-25823
T4
X32932Y-32466
X32932Y-34434
X36350Y-34450
X39250Y-37700
X40400Y-43582
X42369Y-43582
X45100Y-43600
X46350Y-34450
X47069Y-43600
X49250Y-37700
T0
M30
